nColumns=19
nRows=39
DataType=double
version=3
OpenSimVersion=4.1
endheader
time	ground_force_1_vx	ground_force_1_vy	ground_force_1_vz	ground_force_1_px	ground_force_1_py	ground_force_1_pz	ground_force_1_mx	ground_force_1_my	ground_force_1_mz	ground_force_2_vx	ground_force_2_vy	ground_force_2_vz	ground_force_2_px	ground_force_2_py	ground_force_2_pz	ground_force_2_mx	ground_force_2_my	ground_force_2_mz
0	-42.8374	383.151	20.464	0.0787723	0.006	-0.219881	0	-0.63946	0	0	0	0	0.658441	0	-0.308574	0	0	0
0.01	-56.6091	424.053	17.3966	0.0845313	0.006	-0.218656	0	-0.806476	0	0	0	0	0.658441	0	-0.308574	0	0	0
0.02	-71.1848	469.438	13.3285	0.0912243	0.006	-0.217122	0	-0.991725	0	0	0	0	0.658441	0	-0.308574	0	0	0
0.03	-86.0784	518.336	8.23258	0.0977243	0.006	-0.215524	0	-1.18383	0	0	0	0	0.658441	0	-0.308574	0	0	0
0.04	-100.82	569.657	2.2041	0.103974	0.006	-0.213905	0	-1.36788	0	0	0	0	0.658441	0	-0.308574	0	0	0
0.05	-114.973	622.336	-4.54811	0.109948	0.006	-0.212303	0	-1.52693	0	0	0	0	0.658441	0	-0.308574	0	0	0
0.06	-128.139	675.429	-11.7578	0.115633	0.006	-0.210753	0	-1.64633	0	0	0	0	0.658441	0	-0.308574	0	0	0
0.07	-139.979	728.117	-19.1534	0.121029	0.006	-0.209278	0	-1.71774	0	0	0	0	0.658441	0	-0.308574	0	0	0
0.08	-150.238	779.63	-26.4634	0.126143	0.006	-0.207896	0	-1.73852	0	0	0	0	0.658441	0	-0.308574	0	0	0
0.09	-158.721	829.135	-33.3942	0.130986	0.006	-0.206615	0	-1.70881	0	0	0	0	0.658441	0	-0.308574	0	0	0
0.1	-165.276	875.663	-39.651	0.135575	0.006	-0.205441	0	-1.63246	0	0	0	0	0.658441	0	-0.308574	0	0	0
0.11	-169.807	918.135	-45.0044	0.13994	0.006	-0.204367	0	-1.51984	0	0	0	0	0.658441	0	-0.308574	0	0	0
0.12	-172.29	955.438	-49.3336	0.144118	0.006	-0.203379	0	-1.38636	0	0	0	0	0.658441	0	-0.308574	0	0	0
0.13	-172.784	986.539	-52.6248	0.148157	0.006	-0.202454	0	-1.24825	0	0	0	0	0.658441	0	-0.308574	0	0	0
0.14	-171.412	1010.59	-54.9485	0.152109	0.006	-0.201568	0	-1.12007	0	0	0	0	0.658441	0	-0.308574	0	0	0
0.15	-168.348	1027.03	-56.4211	0.156025	0.006	-0.200698	0	-1.01316	0	0	0	0	0.658441	0	-0.308574	0	0	0
0.16	-163.798	1035.58	-57.1685	0.159956	0.006	-0.199822	0	-0.935062	0	0	0	0	0.658441	0	-0.308574	0	0	0
0.17	-157.993	1036.28	-57.3092	0.16395	0.006	-0.198923	0	-0.889462	0	0	0	0	0.658441	0	-0.308574	0	0	0
0.18	-151.174	1029.5	-56.949	0.168048	0.006	-0.197987	0	-0.876198	0	0	0	0	0.658441	0	-0.308574	0	0	0
0.19	-143.583	1015.83	-56.1778	0.17229	0.006	-0.197003	0	-0.892149	0	0	0	0	0.658441	0	-0.308574	0	0	0
0.2	-135.452	996.075	-55.068	0.176704	0.006	-0.195967	0	-0.932631	0	0	0	0	0.658441	0	-0.308574	0	0	0
0.21	-126.992	971.201	-53.6773	0.181312	0.006	-0.194877	0	-0.992647	0	0	0	0	0.658441	0	-0.308574	0	0	0
0.22	-118.398	942.29	-52.0551	0.186123	0.006	-0.193736	0	-1.06763	0	0	0	0	0.658441	0	-0.308574	0	0	0
0.23	-109.837	910.49	-50.2488	0.191137	0.006	-0.192554	0	-1.15387	0	0	0	0	0.658441	0	-0.308574	0	0	0
0.24	-101.455	876.958	-48.306	0.196338	0.006	-0.191341	0	-1.24882	0	0	0	0	0.658441	0	-0.308574	0	0	0
0.25	-93.3674	842.821	-46.2724	0.201701	0.006	-0.190114	0	-1.35132	0	0	0	0	0.658441	0	-0.308574	0	0	0
0.26	-85.6629	809.127	-44.1903	0.207184	0.006	-0.188895	0	-1.46185	0	0	0	0	0.658441	0	-0.308574	0	0	0
0.27	-78.3977	776.816	-42.0992	0.212728	0.006	-0.187706	0	-1.58242	0	0	0	0	0.658441	0	-0.308574	0	0	0
0.28	-71.5965	746.694	-40.0386	0.21826	0.006	-0.186573	0	-1.71608	0	0	0	0	0.658441	0	-0.308574	0	0	0
0.29	-65.2523	719.43	-38.053	0.223693	0.006	-0.18552	0	-1.86624	0	0	0	0	0.658441	0	-0.308574	0	0	0
0.3	-59.326	695.559	-36.1937	0.228932	0.006	-0.184569	0	-2.0357	0	0	0	0	0.658441	0	-0.308574	0	0	0
0.31	-53.7485	675.497	-34.5195	0.233877	0.006	-0.183734	0	-2.22594	0	0	0	0	0.658441	0	-0.308574	0	0	0
0.32	-48.4246	659.562	-33.094	0.238438	0.006	-0.183027	0	-2.43685	0	0	0	0	0.658441	0	-0.308574	0	0	0
0.33	-43.2386	647.991	-31.9804	0.242535	0.006	-0.182449	0	-2.66691	0	0	0	0	0.658441	0	-0.308574	0	0	0
0.34	-38.0596	640.962	-31.2356	0.246116	0.006	-0.181996	0	-2.91367	0	0	0	0	0.658441	0	-0.308574	0	0	0
0.35	-32.7499	638.607	-30.9044	0.249154	0.006	-0.181658	0	-3.17417	0	0	0	0	0.658441	0	-0.308574	0	0	0
0.36	-27.1732	641.025	-31.016	0.251657	0.006	-0.181419	0	-3.44569	0	0	0	0	0.658441	0	-0.308574	0	0	0
0.37	-21.2011	648.282	-31.5829	0.253664	0.006	-0.181264	0	-3.72589	0	0	0	0	0.658441	0	-0.308574	0	0	0
0.38	-14.7197	660.405	-32.6015	0.25524	0.006	-0.181177	0	-4.01274	0	0	0	0	0.658441	0	-0.308574	0	0	0
